<?xml version="1.0" encoding="UTF-8"?>
<svg version="1.1" xmlns="http://www.w3.org/2000/svg" width="1184" height="864">
<path d="M0 0 C390.72 0 781.44 0 1184 0 C1184 285.12 1184 570.24 1184 864 C793.28 864 402.56 864 0 864 C0 578.88 0 293.76 0 0 Z " fill="#FDFEFE" transform="translate(0,0)"/>
<path d="M0 0 C2 2 2 2 2.25 5.1875 C2 9 2 9 1 12.375 C-0.5505078 17.99559077 -0.58590407 23.37955598 1 29 C6.05203005 27.12469136 6.05203005 27.12469136 10.125 23.75 C10.74375 23.1725 11.3625 22.595 12 22 C16.3 22.3 16.3 22.3 18 24 C17.76810646 29.91328516 16.21236799 32.88124019 12 37 C8.06180055 39.6254663 4.64074403 40.59141037 -0.03125 40.4296875 C-3.63827473 39.64244004 -5.48635675 37.63932541 -8 35 C-8 34.34 -8 33.68 -8 33 C-11.93797776 36.71871397 -14.83444452 40.90353003 -17.90234375 45.34375 C-20.81179504 49.02797137 -24.4594209 52.53098911 -29 54 C-32.625 53.875 -32.625 53.875 -36 53 C-37.4375 50.9375 -37.4375 50.9375 -38 49 C-39.13541965 50.13541965 -40.26934316 51.27235258 -41.3984375 52.4140625 C-42.4873827 53.49238384 -43.59792894 54.54922884 -44.7265625 55.5859375 C-51.00060498 61.49851252 -55.90236316 68.30839804 -60.83447266 75.33935547 C-61.75635447 76.65285361 -62.69380162 77.95542609 -63.63671875 79.25390625 C-67.07530908 84.27620064 -68.86623307 89.82741128 -70.81640625 95.5625 C-71.78928396 98.38801942 -72.84233834 101.12264779 -74 103.875 C-75.76156352 108.17946571 -77.14369188 112.55603588 -78.5 117 C-80.37828322 123.14283989 -82.49562939 129.08057856 -85 135 C-85.4021875 136.010625 -85.804375 137.02125 -86.21875 138.0625 C-90.83531746 149.54761905 -90.83531746 149.54761905 -94 153 C-97.0625 153.625 -97.0625 153.625 -100 153 C-102.82775766 150.06578558 -103.41056745 147.96254995 -103.375 143.9375 C-103.16875281 137.89287076 -101.9807988 132.69984961 -100 127 C-99.76313477 126.31325195 -99.52626953 125.62650391 -99.28222656 124.91894531 C-95.23481068 113.43409613 -90.07049852 103.07427292 -83.56884766 92.77416992 C-79.51075291 86.2676055 -75 78.87313103 -75 71 C-75.845625 71.804375 -76.69125 72.60875 -77.5625 73.4375 C-80.9092644 76.2066904 -83.57668454 77.08191325 -88 77 C-90.3125 75.0625 -90.3125 75.0625 -92 73 C-92.66 73 -93.32 73 -94 73 C-95.3337216 74.68113694 -96.59271116 76.42195478 -97.8125 78.1875 C-99.20659961 80.12624785 -100.60228092 82.06385995 -102 84 C-102.43570313 84.6084375 -102.87140625 85.216875 -103.3203125 85.84375 C-105.04649917 87.92000249 -106.54553849 88.91847138 -109.19921875 89.39453125 C-115.16727545 89.65401198 -115.16727545 89.65401198 -117.7109375 87.65625 C-121.30433651 83.03927673 -120.39472359 76.51943998 -120 71 C-119.09667458 66.82696907 -117.91240218 62.82480435 -116 59 C-117.65 59 -119.3 59 -121 59 C-121.185625 60.0209375 -121.185625 60.0209375 -121.375 61.0625 C-123.39692181 70.56553252 -127.41264723 78.53252926 -132 87 C-132.61617187 88.15886719 -133.23234375 89.31773437 -133.8671875 90.51171875 C-137.35414166 96.81148259 -140.40747083 101.70373542 -147 105 C-153.24793388 105.5785124 -153.24793388 105.5785124 -156.4375 103.125 C-158 101 -158 101 -158 99 C-161.08152697 101.90387797 -163.43247204 104.94259132 -165.8125 108.4375 C-169.18776344 113.1191154 -171.92631216 116.2325339 -177 119 C-178.134375 119.144375 -179.26875 119.28875 -180.4375 119.4375 C-184.23188472 120.03661338 -185.06504462 120.66986472 -187.875 123.0625 C-191.54978156 126.00946075 -194.24152885 126.92712205 -198.953125 126.5859375 C-202.66697596 125.52281223 -204.05442525 123.18366777 -206 120 C-207.79098629 115.55685631 -208.22245739 111.90041233 -208.125 107.125 C-208.10695313 105.97257812 -208.08890625 104.82015625 -208.0703125 103.6328125 C-208.04710937 102.76398438 -208.02390625 101.89515625 -208 101 C-211.76214763 104.28454759 -213.80507119 108.06668259 -215.9375 112.5 C-216.28522461 113.20979004 -216.63294922 113.91958008 -216.99121094 114.65087891 C-220.36102004 121.60169684 -223.32843306 128.69003645 -226.12109375 135.890625 C-226.64896484 137.24414062 -226.64896484 137.24414062 -227.1875 138.625 C-227.49042969 139.42164063 -227.79335938 140.21828125 -228.10546875 141.0390625 C-229 143 -229 143 -231 145 C-234 145.25 -234 145.25 -237 145 C-239.1385485 142.8614515 -239.42655063 141.86724686 -240 139 C-240.61746094 139.845625 -241.23492188 140.69125 -241.87109375 141.5625 C-256.36636892 161.11165021 -256.36636892 161.11165021 -268 164 C-272.926719 164.38640933 -275.98836344 163.77487056 -279.9375 160.75 C-284.7945771 154.2738972 -284.69746913 147.83990616 -284 140 C-281.17334148 126.59452965 -272.25442294 110.42732006 -261.4375 101.8125 C-257.49390137 99.733148 -255.38476082 99.17268664 -251 100 C-248.35909864 102.099178 -247.22752539 103.66328834 -246.65625 107.01953125 C-246.35723422 114.13361512 -248.10337575 121.63703059 -253 127 C-257.875 126.125 -257.875 126.125 -259 125 C-259.07205511 123.31391034 -259.08386068 121.62499341 -259.0625 119.9375 C-259.05347656 119.01839844 -259.04445313 118.09929687 -259.03515625 117.15234375 C-259.02355469 116.44207031 -259.01195312 115.73179687 -259 115 C-267.99508028 127.55773848 -272.47086884 136.30437209 -272 152 C-262.85348825 150.60985659 -256.35077302 143.11007387 -251 136 C-235.34273558 111.80509517 -229.6788968 84.00248845 -225 56 C-224.34 56 -223.68 56 -223 56 C-222.98582031 55.24460937 -222.97164062 54.48921875 -222.95703125 53.7109375 C-222.52813773 43.81161138 -220.47943129 34.60799448 -218.15625 25.00390625 C-217.43145339 21.99438778 -216.81450043 19.03433927 -216.4140625 15.96484375 C-216 13 -216 13 -214.875 11 C-211.82349077 9.37252841 -209.26296715 10.27489619 -206 11 C-205 12 -205 12 -204.8203125 14.9140625 C-204.89307147 19.83407408 -205.90633676 24.56603356 -206.875 29.375 C-207.04902344 30.26960938 -207.22304688 31.16421875 -207.40234375 32.0859375 C-208.3482427 36.90651881 -209.3746156 41.70378783 -210.4447937 46.49804688 C-212.14709544 54.16921194 -213.7786986 61.85610984 -215.42333984 69.53979492 C-215.89310567 71.73089127 -216.3644735 73.92164473 -216.83740234 76.11206055 C-217.52308328 79.28873256 -218.20349925 82.46649228 -218.8828125 85.64453125 C-219.09527618 86.62372025 -219.30773987 87.60290924 -219.52664185 88.61177063 C-219.81727005 89.97920662 -219.81727005 89.97920662 -220.11376953 91.37426758 C-220.37119431 92.57265007 -220.37119431 92.57265007 -220.63381958 93.79524231 C-221.10922805 96.28516445 -221.10922805 96.28516445 -221 100 C-220.39671875 99.02417969 -219.7934375 98.04835938 -219.171875 97.04296875 C-218.36497872 95.75756421 -217.55766503 94.47242164 -216.75 93.1875 C-216.35425781 92.54490234 -215.95851563 91.90230469 -215.55078125 91.24023438 C-213.4092243 87.85236149 -211.58362037 85.00624588 -208 83 C-204.4375 82.5625 -204.4375 82.5625 -201 83 C-197.6821989 86.19409953 -197.58992323 89.04337793 -197.48828125 93.515625 C-197.45283203 94.76601563 -197.41738281 96.01640625 -197.38085938 97.3046875 C-197.35830078 98.60664063 -197.33574219 99.90859375 -197.3125 101.25 C-197.27833984 102.56742187 -197.24417969 103.88484375 -197.20898438 105.2421875 C-197.12649294 108.49470678 -197.0573433 111.74695596 -197 115 C-192.67628107 112.97366931 -192.67628107 112.97366931 -189 110 C-188.63607938 108.2006147 -188.3570764 106.3835893 -188.125 104.5625 C-185.61662294 88.49739804 -177.90064481 73.99019072 -164.64453125 64.2734375 C-161.36049156 62.69205354 -158.94324298 62.63368055 -155.3125 62.6875 C-153.60513672 62.69330078 -153.60513672 62.69330078 -151.86328125 62.69921875 C-149 63 -149 63 -147 65 C-146.27945964 70.10735963 -147.08224869 74.8785876 -148.48828125 79.8046875 C-149.49605622 84.12811906 -149.69128101 88.58044396 -150 93 C-145.50675644 88.96574368 -142.74844559 84.59609121 -139.875 79.3125 C-139.43486572 78.508125 -138.99473145 77.70375 -138.54125977 76.875 C-134.14063062 68.65938622 -132.05611439 61.60506328 -131.3828125 52.33984375 C-130.77422327 48.61999732 -129.09033891 46.10179323 -127 43 C-122.44615385 42.63076923 -122.44615385 42.63076923 -120.1875 44.5 C-119.795625 44.995 -119.40375 45.49 -119 46 C-115.92338929 44.9141374 -113.74688665 43.80741375 -111.125 41.8125 C-108 40 -108 40 -104.25 40.125 C-101 41 -101 41 -99 43 C-99.30959218 48.01417922 -100.62431775 51.88784147 -102.8125 56.375 C-103.34746094 57.49648438 -103.88242187 58.61796875 -104.43359375 59.7734375 C-105.20896484 61.37058594 -105.20896484 61.37058594 -106 63 C-106.80169258 64.66186729 -107.59487337 66.32790062 -108.375 68 C-108.85066406 68.99 -108.85066406 68.99 -109.3359375 70 C-110.13648951 72.4110743 -110.11391684 74.47630375 -110 77 C-100.69257861 66.07284554 -94.86684613 55.71598548 -91.125 41.953125 C-89.65504938 36.605546 -87.98799461 30.98799461 -84 27 C-81.38419521 27.3269756 -79.35921863 27.82039068 -77 29 C-76.54382553 34.85262137 -78.23134828 39.79581264 -79.9375 45.3125 C-81.97942617 51.92151857 -83.4437085 58.09212708 -84 65 C-80.4919433 61.81588547 -78.12064325 58.24389907 -75.75 54.1875 C-75.36231445 53.53096436 -74.97462891 52.87442871 -74.57519531 52.19799805 C-68.73001029 42.21623884 -63.20774735 32.23130346 -59.10546875 21.390625 C-57.99268273 18.98417608 -57.12494447 17.57639991 -55 16 C-49.56521739 16.43478261 -49.56521739 16.43478261 -48 18 C-47.17390554 27.7066099 -51.53976358 36.68896312 -55.01806641 45.55444336 C-56.16413273 48.51854495 -57 50.79213705 -57 54 C-56.45472656 53.39414062 -55.90945313 52.78828125 -55.34765625 52.1640625 C-54.59355469 51.32617188 -53.83945312 50.48828125 -53.0625 49.625 C-52.24523437 48.7071875 -51.42796875 47.789375 -50.5859375 46.84375 C-48.9426665 45.03664835 -47.26345318 43.26111494 -45.5390625 41.53125 C-40.41683245 36.28989833 -38.00874596 32.0408248 -36.0078125 25.01953125 C-33.04588707 16.14523529 -26.89995607 9.1109798 -20 3 C-19.13375 2.154375 -18.2675 1.30875 -17.375 0.4375 C-11.79134686 -1.94072263 -5.89035448 -1.07234658 0 0 Z " fill="#0A090A" transform="translate(963,272)"/>
<path d="M0 0 C2.375 0.5 2.375 0.5 4.375 2.5 C5.79670898 13.97820925 2.72306173 25.83539351 -0.21582031 36.85620117 C-1.33040635 41.07240741 -2.08393221 45.1826137 -2.625 49.5 C-1.635 48.84 -0.645 48.18 0.375 47.5 C3.0625 47.875 3.0625 47.875 5.375 48.5 C5.705 50.15 6.035 51.8 6.375 53.5 C5.76011719 53.89832031 5.14523437 54.29664063 4.51171875 54.70703125 C3.70347656 55.23683594 2.89523437 55.76664062 2.0625 56.3125 C0.86173828 57.09560547 0.86173828 57.09560547 -0.36328125 57.89453125 C-4.57835385 60.88657761 -5.98332538 62.78569822 -7.01171875 67.9375 C-7.22763672 68.99710937 -7.44355469 70.05671875 -7.66601562 71.1484375 C-7.87935547 72.25445312 -8.09269531 73.36046875 -8.3125 74.5 C-8.53744141 75.60601562 -8.76238281 76.71203125 -8.99414062 77.8515625 C-10.20242888 83.63307696 -10.20242888 83.63307696 -10.625 89.5 C-10.24988281 88.76394531 -9.87476563 88.02789062 -9.48828125 87.26953125 C-3.7668076 76.35981954 -3.7668076 76.35981954 0.375 73.5 C3.33701317 72.91109581 5.28648835 73.10148237 8.375 73.5 C10.56609954 75.0869269 11.27828021 75.96172003 11.75976562 78.64135742 C11.76685547 79.45451416 11.77394531 80.2676709 11.78125 81.10546875 C11.80316406 82.00716797 11.82507813 82.90886719 11.84765625 83.83789062 C11.85667969 84.77826172 11.86570312 85.71863281 11.875 86.6875 C11.94259682 93.58720414 12.2291299 99.25808127 15.375 105.5 C17.30384829 106.84122159 17.30384829 106.84122159 19.5 107.125 C21.6328125 107.71484375 21.6328125 107.71484375 23.375 108.5 C24.375 111.6875 24.375 111.6875 24.375 114.5 C20.51923054 117.84819704 17.75738865 118.07164362 12.78125 117.91796875 C8.04762029 117.09573112 6.25522932 113.72603369 3.625 110.0625 C0.76062413 104.19052948 1.26143821 97.88469591 1.375 91.5 C-5.36466135 97.6015869 -8.45985448 107.23835635 -11.53125 115.546875 C-12.78204705 118.92402705 -14.18190904 122.20150637 -15.625 125.5 C-15.975625 126.4075 -16.32625 127.315 -16.6875 128.25 C-17.625 130.5 -17.625 130.5 -19.625 133.5 C-26.5 132.625 -26.5 132.625 -27.625 131.5 C-29.78565963 110.8143406 -23.01260376 88.53943224 -18.625 68.5 C-28.17334457 72.60657013 -28.17334457 72.60657013 -34.375 80.1875 C-34.49876806 81.62208432 -34.57654552 83.06090207 -34.625 84.5 C-34.94236313 86.60663455 -35.27718097 88.71067927 -35.625 90.8125 C-35.78871094 91.92753906 -35.95242188 93.04257812 -36.12109375 94.19140625 C-36.70697199 98.03821921 -37.41488963 101.85315349 -38.16015625 105.671875 C-39.6996288 115.03807776 -39.92196499 124.4013501 -40.14257812 133.87695312 C-40.17673828 134.95783203 -40.21089844 136.03871094 -40.24609375 137.15234375 C-40.28367798 138.62175415 -40.28367798 138.62175415 -40.32202148 140.12084961 C-40.625 142.5 -40.625 142.5 -42.625 144.5 C-46.25 144.625 -46.25 144.625 -49.625 144.5 C-50.77314997 142.20370006 -50.93269809 140.42301914 -51.1875 137.875 C-51.27128906 137.05773437 -51.35507812 136.24046875 -51.44140625 135.3984375 C-51.50199219 134.77195312 -51.56257813 134.14546875 -51.625 133.5 C-52.22828125 134.53640625 -52.8315625 135.5728125 -53.453125 136.640625 C-54.26009888 138.01060391 -55.06740829 139.38038521 -55.875 140.75 C-56.27074219 141.43191406 -56.66648437 142.11382812 -57.07421875 142.81640625 C-61.25034895 149.86790478 -61.25034895 149.86790478 -64.625 152.5 C-66.87890625 153.06640625 -66.87890625 153.06640625 -69.1875 153.0625 C-70.33412109 153.09537109 -70.33412109 153.09537109 -71.50390625 153.12890625 C-73.625 152.5 -73.625 152.5 -75.359375 150.515625 C-77.03067822 146.533384 -77.18694756 142.9670446 -77.3125 138.6875 C-77.34666016 137.89923828 -77.38082031 137.11097656 -77.41601562 136.29882812 C-77.49799875 134.36636881 -77.56318845 132.43320965 -77.625 130.5 C-83.17911634 140.23108498 -88.50958894 149.96823905 -93.11132812 160.19116211 C-95.43272675 165.30772675 -95.43272675 165.30772675 -97.625 167.5 C-100.625 167.75 -100.625 167.75 -103.625 167.5 C-104.615 166.51 -104.615 166.51 -105.625 165.5 C-105.625 164.51 -105.625 163.52 -105.625 162.5 C-106.285 162.5 -106.945 162.5 -107.625 162.5 C-107.9034375 163.49 -107.9034375 163.49 -108.1875 164.5 C-110.49019108 169.30561617 -113.62018 174.22522788 -118.6875 176.375 C-122.37850194 177.04609126 -124.3413535 176.67882062 -127.5 174.6875 C-128.20125 173.965625 -128.9025 173.24375 -129.625 172.5 C-130.285 171.84 -130.945 171.18 -131.625 170.5 C-132.0375 171.21285156 -132.45 171.92570313 -132.875 172.66015625 C-137.39125557 180.15028546 -141.73148543 186.95038705 -150.375 189.6875 C-153.625 189.5 -153.625 189.5 -156 187.75 C-160.08536564 182.09333988 -159.38531756 174.19702128 -158.625 167.5 C-157.44173185 162.89443473 -155.72187647 158.76049701 -153.625 154.5 C-153.19058594 153.61570312 -152.75617188 152.73140625 -152.30859375 151.8203125 C-148.09058727 144.10532628 -141.94791472 137.38194315 -134.625 132.5 C-131.33984375 132.453125 -131.33984375 132.453125 -127.5625 132.75 C-126.31339844 132.83765625 -125.06429687 132.9253125 -123.77734375 133.015625 C-120.625 133.5 -120.625 133.5 -118.625 135.5 C-118.33175191 139.23891319 -118.51752543 142.14318442 -119.6015625 145.7421875 C-120.68340293 149.7144413 -121.03200065 153.33184562 -121.25 157.4375 C-121.28867187 158.12134766 -121.32734375 158.80519531 -121.3671875 159.50976562 C-121.46022412 161.17279513 -121.54363787 162.83635847 -121.625 164.5 C-117.81445031 160.98886054 -115.71167201 156.62910731 -113.25 152.125 C-112.75612793 151.22539551 -112.26225586 150.32579102 -111.75341797 149.39892578 C-108.56569529 143.49397349 -105.91951737 137.67867315 -103.6796875 131.3515625 C-99.69021739 120.56521739 -99.69021739 120.56521739 -96.625 117.5 C-93.6875 117.3125 -93.6875 117.3125 -90.625 117.5 C-88.625 119.5 -88.625 119.5 -88.5 123.125 C-88.54125 124.23875 -88.5825 125.3525 -88.625 126.5 C-89.285 126.5 -89.945 126.5 -90.625 126.5 C-90.625 128.48 -90.625 130.46 -90.625 132.5 C-90.12871094 131.59378906 -89.63242187 130.68757812 -89.12109375 129.75390625 C-84.67891088 121.74961637 -80.15064052 114.02564052 -73.625 107.5 C-68.36277573 106.94018891 -68.36277573 106.94018891 -65.95703125 108.765625 C-63.31673712 112.20342733 -64.24595332 116.37422267 -64.625 120.5 C-65.45762384 126.52793226 -66.52973571 132.515163 -67.625 138.5 C-54.36685133 125.67297375 -50.51232167 99.51041827 -45.625 82.5 C-48.23040782 83.78921216 -50.83434373 85.08125596 -53.4375 86.375 C-54.54448242 86.92220703 -54.54448242 86.92220703 -55.67382812 87.48046875 C-56.74213867 88.01220703 -56.74213867 88.01220703 -57.83203125 88.5546875 C-58.4866333 88.87937012 -59.14123535 89.20405273 -59.81567383 89.53857422 C-61.87152798 90.59255672 -61.87152798 90.59255672 -64.625 92.5 C-67.94740324 92.1758631 -69.23276303 91.89223697 -71.625 89.5 C-72.0625 87.125 -72.0625 87.125 -71.625 84.5 C-67.92688754 81.09439361 -63.78995623 78.76298181 -59.375 76.4375 C-58.7162085 76.08751953 -58.05741699 75.73753906 -57.37866211 75.37695312 C-52.57767635 72.87731009 -47.84803893 70.96611619 -42.625 69.5 C-42.51542969 68.37464844 -42.40585937 67.24929688 -42.29296875 66.08984375 C-41.51519824 58.41880916 -40.65463858 50.77216377 -39.25 43.1875 C-39.03601563 42.01574219 -38.82203125 40.84398437 -38.6015625 39.63671875 C-37.52609673 36.18232269 -36.04606883 34.15520512 -33.625 31.5 C-27.75 32.375 -27.75 32.375 -26.625 33.5 C-25.93347012 40.58818125 -26.96786387 46.8857371 -28.96875 53.67578125 C-29.67242775 56.70410872 -29.73483344 59.40178161 -29.625 62.5 C-24.72484756 60.99879723 -20.20622101 59.25013507 -16.625 55.5 C-14.06538793 50.36980805 -13.78172631 44.31199662 -13.07470703 38.69726562 C-12.196961 32.45678677 -10.88420305 26.29714023 -9.625 20.125 C-9.38724854 18.87122559 -9.14949707 17.61745117 -8.90454102 16.32568359 C-5.87497206 1.1190423 -5.87497206 1.1190423 0 0 Z " fill="#090909" transform="translate(553.625,368.5)"/>
<path d="M0 0 C3.32752122 0.48526351 4.00197153 0.85516309 6 3.4375 C6.38818359 5.33398438 6.38818359 5.33398438 6.3984375 7.53125 C6.40431885 8.37905029 6.4102002 9.22685059 6.41625977 10.1003418 C6.40264404 11.036604 6.38902832 11.97286621 6.375 12.9375 C6.36847412 13.92854736 6.36194824 14.91959473 6.35522461 15.94067383 C6.15833548 27.64012628 5.01217653 39.27045712 3.93800354 50.914505 C3.00161522 61.07949313 2.36753273 71.23529826 2 81.4375 C2.64066406 81.0765625 3.28132812 80.715625 3.94140625 80.34375 C9.25779915 77.49143786 12.95251548 75.78016473 19 76.4375 C19.5625 79.5625 19.5625 79.5625 19 83.4375 C15.79521379 86.52359043 11.82873795 88.70986218 7.70825195 90.34936523 C5.11839634 91.49622437 3.12040147 92.55208935 1 94.4375 C-0.24706141 98.03779308 -0.06964108 101.47372175 0.0625 105.25 C0.05555295 107.39845823 0.04368388 109.54690518 0.02734375 111.6953125 C0.02976074 112.80165039 0.03217773 113.90798828 0.03466797 115.04785156 C-0.02204896 120.59332932 -0.42958191 126.09917802 -0.875 131.625 C-0.94195068 132.63344971 -1.00890137 133.64189941 -1.07788086 134.6809082 C-1.77902682 143.52863053 -1.77902682 143.52863053 -5 147.4375 C-7.86459002 148.86979501 -9.81951265 148.7586441 -13 148.4375 C-15.7109375 146.64453125 -15.7109375 146.64453125 -18.375 144.25 C-26.18659203 137.53329418 -33.19567489 133.6635555 -43 130.4375 C-43.38285156 132.33822266 -43.38285156 132.33822266 -43.7734375 134.27734375 C-44.97331492 139.67679216 -46.74923418 144.80351866 -48.625 150 C-48.94984375 150.91330078 -49.2746875 151.82660156 -49.609375 152.76757812 C-50.40153629 154.99261941 -51.1984659 157.21582175 -52 159.4375 C-52.66 159.4375 -53.32 159.4375 -54 159.4375 C-54.268125 160.200625 -54.53625 160.96375 -54.8125 161.75 C-55.97728889 164.38610118 -56.65997402 165.79081505 -59 167.4375 C-61.5625 167.75 -61.5625 167.75 -64 167.4375 C-66 165.4375 -66 165.4375 -66.4375 162.9375 C-65.89838301 158.62456407 -64.26005678 155.58837308 -62.19140625 151.8046875 C-61.10947266 149.65500961 -60.47070259 147.78560256 -60 145.4375 C-59.34 145.4375 -58.68 145.4375 -58 145.4375 C-57.89042969 144.79683594 -57.78085937 144.15617188 -57.66796875 143.49609375 C-56.67539672 138.0813309 -55.37541347 133.40427361 -53 128.4375 C-54.24716797 128.59798828 -54.24716797 128.59798828 -55.51953125 128.76171875 C-56.60621094 128.88160156 -57.69289063 129.00148438 -58.8125 129.125 C-60.43091797 129.31642578 -60.43091797 129.31642578 -62.08203125 129.51171875 C-65 129.4375 -65 129.4375 -66.88671875 128.26953125 C-68.39607452 125.78571421 -68.44343694 124.29520469 -68 121.4375 C-66.70703125 119.8828125 -66.70703125 119.8828125 -64.8125 118.5625 C-64.090625 118.04945313 -63.36875 117.53640625 -62.625 117.0078125 C-60 115.4375 -60 115.4375 -56.75 113.9921875 C-55.615625 113.47914063 -54.48125 112.96609375 -53.3125 112.4375 C-52.23613281 112.004375 -51.15976562 111.57125 -50.05078125 111.125 C-45.21541296 107.95207165 -44.24177164 101.58995032 -42.61886597 96.37219238 C-41.63013571 93.28123407 -40.48588869 90.25093996 -39.3515625 87.2109375 C-38.90748047 86.0053418 -38.46339844 84.79974609 -38.00585938 83.55761719 C-37.30283914 81.65091097 -36.59981649 79.74420565 -35.89672852 77.83752441 C-33.28804002 70.7569833 -30.7116299 63.67114679 -28.29199219 56.52319336 C-25.32845001 47.78330188 -21.95319666 39.25715066 -18.375 30.75 C-17.91931641 29.66235352 -17.46363281 28.57470703 -16.99414062 27.45410156 C-14.61021098 21.86795583 -12.07087713 16.49918121 -9.01464844 11.24804688 C-7.88165527 9.3182558 -7.88165527 9.3182558 -6.875 6.625 C-5.28385469 2.64713672 -4.43219527 0.64636181 0 0 Z " fill="#0B0A0A" transform="translate(671,303.5625)"/>
<path d="M0 0 C3.72321631 3.91917506 6.29005429 7.69004802 6.25 13.1875 C5.90130698 23.90981029 2.00260408 31.2666085 -4 40 C-5.03060547 41.51207031 -5.03060547 41.51207031 -6.08203125 43.0546875 C-17.28652013 58.47802946 -31.62837726 71.80854661 -47 83 C-48.03253906 83.76957031 -49.06507813 84.53914062 -50.12890625 85.33203125 C-61.8579955 94 -61.8579955 94 -65 94 C-65 94.99 -65 95.98 -65 97 C-63.68128906 97.16822266 -63.68128906 97.16822266 -62.3359375 97.33984375 C-58.98812874 98.00234923 -56.63271232 98.98108106 -53.625 100.5625 C-52.57441406 101.10648438 -51.52382813 101.65046875 -50.44140625 102.2109375 C-49.30574219 102.80132813 -48.17007813 103.39171875 -47 104 C-45.17279563 104.9143566 -43.3411078 105.8193172 -41.50927734 106.72436523 C-30.9118288 111.9672715 -20.4574111 117.4845393 -10 123 C-9.875 126.375 -9.875 126.375 -10 130 C-12 132 -12 132 -14.5859375 132.40234375 C-19.26797494 131.85057046 -22.56604905 129.86730821 -26.625 127.5625 C-35.8226007 122.5245593 -45.22299971 118.16918873 -54.82226562 113.95898438 C-57.80981795 112.64338959 -60.78030111 111.29290103 -63.75 109.9375 C-65.16664345 109.29161574 -66.58330555 108.64577238 -68 108 C-67.98984863 108.60658447 -67.97969727 109.21316895 -67.96923828 109.83813477 C-67.91186832 115.93047374 -68.24407348 121.88060539 -68.875 127.9375 C-68.96668457 128.83339844 -69.05836914 129.72929688 -69.15283203 130.65234375 C-69.3428732 132.50907528 -69.53412008 134.36568378 -69.7265625 136.22216797 C-69.99505747 138.94978921 -70.22206966 141.67788119 -70.4375 144.41015625 C-70.5111377 145.26681885 -70.58477539 146.12348145 -70.66064453 147.00610352 C-70.79992921 148.6265967 -70.92662394 150.2482389 -71.03857422 151.87084961 C-71.48387449 156.73231122 -72.44269419 159.60197654 -76 163 C-78.625 163.5 -78.625 163.5 -81 163 C-85.81884644 155.77173034 -82.63664773 143.79295804 -81.77319336 135.57250977 C-81.5603295 133.54179348 -81.35671986 131.51029672 -81.15429688 129.47851562 C-80.10865593 119.26183853 -80.10865593 119.26183853 -79 115 C-78.93311409 113.08438746 -78.91468281 111.16664408 -78.9375 109.25 C-78.94652344 108.26515625 -78.95554688 107.2803125 -78.96484375 106.265625 C-78.97644531 105.51796875 -78.98804688 104.7703125 -79 104 C-79.78632813 103.69578125 -80.57265625 103.3915625 -81.3828125 103.078125 C-85.45736659 101.39965197 -85.45736659 101.39965197 -87 99 C-87 95.09250224 -86.49193184 93.50559661 -83.75 90.6875 C-81.01660503 89.01018945 -79.11292921 88.52752659 -76 88 C-75.95101562 87.319375 -75.90203125 86.63875 -75.8515625 85.9375 C-75.34830789 79.41254368 -74.65750759 72.93452213 -73.79907227 66.4465332 C-73.29649498 62.5885539 -72.87230345 58.73524518 -72.53125 54.859375 C-72.41317993 53.56882202 -72.41317993 53.56882202 -72.29272461 52.25219727 C-72.14184047 50.57135112 -72.00163526 48.88950442 -71.87329102 47.20678711 C-71.34221904 41.42582834 -71.34221904 41.42582834 -69.61499023 39.27661133 C-68 38 -68 38 -65.5 37.6875 C-63 38 -63 38 -60 40 C-58.35531538 48.2212125 -60.86992398 57.8693775 -62 66.125 C-62.19330443 67.57283721 -62.38601717 69.02075354 -62.578125 70.46875 C-63.04527248 73.98010422 -63.52039307 77.49032321 -64 81 C-58.65775788 78.12871742 -54.04554824 74.85845414 -49.375 71 C-48.68059814 70.42894531 -47.98619629 69.85789062 -47.27075195 69.26953125 C-36.09746881 60.00469242 -26.00348612 50.40921761 -17 39 C-16.30777344 38.1234375 -15.61554688 37.246875 -14.90234375 36.34375 C-8.9377087 28.3402482 -5.75059602 19.94539731 -5 10 C-11.06651112 6.18372358 -20.14790668 7.39763587 -26.97265625 8.46484375 C-34.38774455 10.31042537 -41.18618931 13.60469592 -48 17 C-49.18722656 17.57621094 -50.37445313 18.15242188 -51.59765625 18.74609375 C-70.52821079 28.18757948 -90.19752036 43.29628053 -102 61 C-102.495 62.7634375 -102.495 62.7634375 -103 64.5625 C-104 68 -104 68 -106 70 C-109 70.3125 -109 70.3125 -112 70 C-114.0379282 66.94310771 -114.68024253 65.0789075 -114.546875 61.41796875 C-110.12291681 41.85775362 -83.11055992 24.8869313 -67.61328125 14.859375 C-50.59696948 4.13162317 -19.20485921 -13.66499598 0 0 Z " fill="#0A0A0A" transform="translate(318,472)"/>
<path d="M0 0 C0.38218767 1.65614657 0.71395102 3.32457024 1 5 C0.67 5.33 0.34 5.66 0 6 C-0.32922875 8.26569237 -0.61230714 10.53813285 -0.875 12.8125 C-2.72677798 27.52355586 -7.56350117 40.15569156 -14 53.4375 C-14.3199292 54.11200195 -14.6398584 54.78650391 -14.96948242 55.48144531 C-17.65910937 60.90546979 -20.90711917 64.60474611 -26 68 C-29.4375 68.0625 -29.4375 68.0625 -33 67 C-35.7346499 64.03481275 -36.91057022 61.05079992 -37.25 57.0625 C-37.1675 56.381875 -37.085 55.70125 -37 55 C-39.64647813 57.40084693 -41.30172204 60.00168314 -43.125 63.0625 C-48.94056709 72.3256923 -56.92018831 82.95305179 -68 86 C-74.32467923 86.51630035 -80.85039302 85.5117395 -87 84 C-89 82 -89 82 -89.125 79.375 C-89.08375 78.59125 -89.0425 77.8075 -89 77 C-87.02 76.01 -87.02 76.01 -85 75 C-85.06960938 73.24236328 -85.06960938 73.24236328 -85.140625 71.44921875 C-85.57288478 56.02757035 -82.37598247 44.38531849 -71.828125 32.56640625 C-68.41755634 29.26756311 -65.4360982 26.65029185 -60.6875 25.75 C-57 26 -57 26 -54.5 27.25 C-51.09245241 33.49717058 -52.66569264 40.60364678 -54.5 47.1875 C-57.48918388 56.14429918 -61.75850333 65.13775499 -67 73 C-52.59059106 64.40146987 -44.6950867 46.39597179 -40 31 C-39.29990583 28.78904085 -38.59175841 26.5806132 -37.875 24.375 C-37.56304687 23.39273438 -37.25109375 22.41046875 -36.9296875 21.3984375 C-36 19 -36 19 -34 17 C-31 16.75 -31 16.75 -28 17 C-26 19 -26 19 -25.77294922 22.34814453 C-25.77326625 23.77640633 -25.78458639 25.20469212 -25.8046875 26.6328125 C-25.8075174 27.38464813 -25.81034729 28.13648376 -25.81326294 28.91110229 C-25.82447126 31.31589578 -25.84957648 33.72031881 -25.875 36.125 C-25.88502898 37.75390088 -25.89415497 39.38280758 -25.90234375 41.01171875 C-25.92441265 45.00795556 -25.95894649 49.00391494 -26 53 C-24.87569124 50.81271874 -23.75832482 48.62231685 -22.64453125 46.4296875 C-22.33004028 45.81955811 -22.01554932 45.20942871 -21.69152832 44.58081055 C-18.6690351 38.60689513 -16.73751504 32.45864175 -15 26 C-14.78601563 25.319375 -14.57203125 24.63875 -14.3515625 23.9375 C-12.64334688 18.19393443 -12.71500336 12.34025536 -12.63671875 6.390625 C-12 3 -12 3 -9.6953125 0.53125 C-6.09964766 -1.51150452 -3.93787619 -0.9265591 0 0 Z " fill="#0B0B0B" transform="translate(395,509)"/>
<path d="M0 0 C0.33 1.32 0.66 2.64 1 4 C0.06615479 4.34973877 -0.86769043 4.69947754 -1.82983398 5.05981445 C-11.76829412 8.78341573 -21.70231221 12.51868411 -31.63061523 16.26928711 C-33.26774958 16.88742407 -34.90512412 17.50492519 -36.54272461 18.12182617 C-38.95743483 19.03154755 -41.37137111 19.94329612 -43.78515625 20.85546875 C-44.8696682 21.26335884 -44.8696682 21.26335884 -45.97608948 21.67948914 C-50.37063079 23.34323264 -54.68892949 25.13064381 -59 27 C-60.31991288 27.5361016 -61.64235958 28.06606889 -62.96875 28.5859375 C-78.08911679 34.55379009 -93.07968103 40.82654987 -108.04492188 47.17120361 C-109.9176125 47.9650743 -111.79082563 48.75771207 -113.6640625 49.55029297 C-140.43791783 60.91079285 -166.78984452 73.21786798 -193.0625 85.6875 C-193.77220947 86.02418701 -194.48191895 86.36087402 -195.21313477 86.70776367 C-201.35226397 89.64531566 -207.43069397 92.70504485 -213.51489258 95.75415039 C-217.39591876 97.69887214 -221.28071233 99.63594317 -225.16667175 101.57078552 C-228.52957857 103.24541533 -231.89138806 104.92224218 -235.25317383 106.59912109 C-236.95365973 107.44684973 -238.65450396 108.29385999 -240.35571289 109.14013672 C-255.17091488 116.51138051 -269.9107239 124.0175105 -284.3671875 132.07421875 C-285.45644531 132.67814453 -286.54570312 133.28207031 -287.66796875 133.90429688 C-289.86603288 135.12648479 -292.05849481 136.35878703 -294.24609375 137.59960938 C-295.85291016 138.48422852 -295.85291016 138.48422852 -297.4921875 139.38671875 C-298.43433105 139.91483154 -299.37647461 140.44294434 -300.34716797 140.98706055 C-303.39408969 142.15047654 -304.92513 141.94614063 -308 141 C-308.4609375 138.79296875 -308.4609375 138.79296875 -308 136 C-305.54132633 134.14821414 -303.3148096 132.75053496 -300.625 131.3125 C-299.86131104 130.88533691 -299.09762207 130.45817383 -298.31079102 130.01806641 C-296.6952388 129.11707585 -295.07505243 128.22435198 -293.45068359 127.33935547 C-291.095499 126.05219242 -288.75871438 124.73714111 -286.42578125 123.41015625 C-284.93017184 122.56424726 -283.43409267 121.71916818 -281.9375 120.875 C-280.95160889 120.31872925 -280.95160889 120.31872925 -279.94580078 119.7512207 C-273.17871048 115.99576856 -266.2353518 112.59045039 -259.30599976 109.14807129 C-255.21833952 107.11297768 -251.13916613 105.06097568 -247.05859375 103.01171875 C-213.28914119 86.07101179 -213.28914119 86.07101179 -197.65234375 78.6875 C-193.14699734 76.55760968 -188.6672286 74.37847032 -184.19140625 72.1875 C-182.80171995 71.5088627 -181.41198993 70.83031492 -180.0222168 70.15185547 C-177.98275597 69.15618505 -175.94410745 68.15905667 -173.90835571 67.15582275 C-166.34517729 63.42968136 -158.77186203 59.99850688 -150.83959961 57.10571289 C-148.01148249 56.00447117 -145.37210797 54.72447374 -142.6875 53.3125 C-134.59507356 49.1361137 -126.12466888 45.82427295 -117.70703125 42.3671875 C-114.14468696 40.90287276 -110.6101593 39.39644891 -107.09765625 37.81640625 C-103.98048722 36.41621803 -100.86042085 35.16989168 -97.625 34.0625 C-93.86407971 32.7252839 -90.24411948 31.24581139 -86.625 29.5625 C-81.64162048 27.24727552 -76.58045566 25.2540535 -71.44140625 23.3125 C-67.83897659 21.93858812 -64.26216777 20.50649061 -60.6875 19.0625 C-47.89381482 13.93292379 -34.97872322 9.18395896 -21.91357422 4.79272461 C-20.44809913 4.29811437 -18.98426723 3.79861335 -17.52197266 3.29467773 C-15.36693139 2.55209097 -13.20766575 1.82331639 -11.046875 1.09765625 C-10.3958783 0.87070572 -9.74488159 0.64375519 -9.07415771 0.40992737 C-5.71367623 -0.69932728 -3.35539659 -1.35781155 0 0 Z " fill="#101010" transform="translate(786,439)"/>
<path d="M0 0 C0.33 1.65 0.66 3.3 1 5 C-0.31484375 5.56654297 -0.31484375 5.56654297 -1.65625 6.14453125 C-19.28845713 13.78127461 -36.71290799 21.88193031 -54.08251953 30.09570312 C-57.21696151 31.57392735 -60.35856028 33.03672217 -63.5 34.5 C-65.35573403 35.36582868 -67.21132842 36.23195603 -69.06689453 37.09814453 C-70.39312793 37.71687479 -71.71964006 38.33500782 -73.04638672 38.95263672 C-82.77462645 43.48406116 -92.41826997 48.15498529 -101.99853516 52.99121094 C-104.04265478 54.02149909 -106.08920141 55.04679454 -108.13671875 56.0703125 C-108.81879395 56.4113501 -109.50086914 56.7523877 -110.20361328 57.10375977 C-111.55406586 57.77769715 -112.90528853 58.45009388 -114.25732422 59.12084961 C-117.3620884 60.66397526 -120.43856924 62.2347203 -123.49609375 63.87109375 C-125.07583984 64.70833984 -125.07583984 64.70833984 -126.6875 65.5625 C-128.05455078 66.30693359 -128.05455078 66.30693359 -129.44921875 67.06640625 C-132.42328826 68.1549248 -134.00673389 67.90067647 -137 67 C-137.33 65.68 -137.66 64.36 -138 63 C-131.93676527 59.07285941 -125.72924064 55.71854962 -119.265625 52.5 C-118.24283951 51.98722 -117.22005402 51.47444 -116.16627502 50.94612122 C-112.8632581 49.29254244 -109.55696344 47.64567051 -106.25 46 C-105.1209726 45.43687103 -103.99194519 44.87374207 -102.82870483 44.29354858 C-87.10814906 36.45596384 -71.35961095 28.73069572 -55.34472656 21.50976562 C-52.24029555 20.10846626 -49.14119455 18.69616097 -46.04359436 17.27986145 C-43.26768101 16.01131934 -40.48998427 14.746721 -37.71176147 13.48324585 C-36.397983 12.88566688 -35.08450835 12.28741933 -33.77139282 11.68838501 C-26.87949012 8.54881457 -19.95230746 5.49229969 -12.95703125 2.58984375 C-11.76698486 2.09218506 -10.57693848 1.59452637 -9.35083008 1.08178711 C-6.00983717 0.00317585 -3.4821908 -0.21972899 0 0 Z " fill="#0F0F0F" transform="translate(680,497)"/>
<path d="M0 0 C0.33 0 0.66 0 1 0 C0.85803484 2.85440587 0.71154174 5.70846196 0.5625 8.5625 C0.52318359 9.36236328 0.48386719 10.16222656 0.44335938 10.98632812 C0.40146484 11.77587891 0.35957031 12.56542969 0.31640625 13.37890625 C0.27974854 14.0963501 0.24309082 14.81379395 0.20532227 15.55297852 C0.04263989 17.4918197 -0.2226755 19.42200884 -0.52368164 21.34423828 C-1.00109207 25.00838165 -1.02880264 28.42271947 -0.9375 32.11328125 C-0.82144861 52.90172849 -0.82144861 52.90172849 -4.67822266 58.38671875 C-9.16590157 62.30958194 -14.36624748 64.27907881 -20 66 C-21.67004555 66.65815659 -23.3386452 67.32020412 -25 68 C-24.33608614 65.21804875 -23.54636285 62.51943001 -22.63647461 59.80834961 C-22.22485329 58.57942238 -22.22485329 58.57942238 -21.80491638 57.32566833 C-21.50706741 56.44347122 -21.20921844 55.56127411 -20.90234375 54.65234375 C-20.58979141 53.72643936 -20.27723907 52.80053497 -19.95521545 51.84657288 C-19.28958248 49.87841582 -18.62292378 47.91060543 -17.95532227 45.94311523 C-17.28622134 43.96726934 -16.62011565 41.99040614 -15.95727539 40.01245117 C-3.83212532 3.83212532 -3.83212532 3.83212532 0 0 Z " fill="#F3F2F2" transform="translate(664,336)"/>
<path d="M0 0 C0.38518288 22.98257855 0.38518288 22.98257855 -2 31 C-5.17464314 29.94178562 -7.32494198 28.74952389 -10 26.6875 C-15.06006338 22.90090468 -21.09465072 21.08685275 -27 19 C-26.47312909 14.45669284 -26.47312909 14.45669284 -24.42578125 12.48046875 C-23.72839844 12.05378906 -23.03101563 11.62710937 -22.3125 11.1875 C-21.11173828 10.44693359 -21.11173828 10.44693359 -19.88671875 9.69140625 C-18.45779297 8.85416016 -18.45779297 8.85416016 -17 8 C-16.42330566 7.65437012 -15.84661133 7.30874023 -15.25244141 6.95263672 C-13.38270239 5.83275887 -11.50580613 4.72617969 -9.625 3.625 C-9.01825439 3.26688232 -8.41150879 2.90876465 -7.78637695 2.53979492 C-4.96748783 0.92534382 -3.30538614 0 0 0 Z " fill="#F1F0F0" transform="translate(660,405)"/>
<path d="M0 0 C-3.3425716 11.6990006 -8.95237243 23.80271134 -17 33 C-17.66 33 -18.32 33 -19 33 C-19 22.43755893 -13.34759679 11.57981913 -6.625 3.5625 C-2.97560976 0 -2.97560976 0 0 0 Z " fill="#EDEBE9" transform="translate(423,512)"/>
<path d="M0 0 C-3.32373166 11.33979038 -8.50430748 23.52672356 -17 32 C-17.66 32 -18.32 32 -19 32 C-18.61274432 20.38232962 -12.80907364 10.43304321 -5 2 C-2 0 -2 0 0 0 Z " fill="#EFEDEB" transform="translate(952,282)"/>
<path d="M0 0 C-3.29404361 11.23850174 -8.17801726 22.97548462 -17 31 C-17.33 31 -17.66 31 -18 31 C-18.15998588 19.38959614 -12.8594539 10.29609023 -5 2 C-2 0 -2 0 0 0 Z " fill="#EAE8E5" transform="translate(804,346)"/>
<path d="M0 0 C0.33 0 0.66 0 1 0 C1.20086443 3.71599191 1.1519437 4.77208445 -1 8 C-0.01 7.67 0.98 7.34 2 7 C2.33 6.34 2.66 5.68 3 5 C5.0625 3.875 5.0625 3.875 7 3 C4.2126073 12.57099636 -2.26826632 20.77570045 -9 28 C-9.33 28 -9.66 28 -10 28 C-10.72858028 21.80193681 -8.14833703 17.19634567 -5.5625 11.75 C-5.14162109 10.83992188 -4.72074219 9.92984375 -4.28710938 8.9921875 C-2.88982619 5.97852712 -1.4856066 2.9712132 0 0 Z " fill="#E5E1DD" transform="translate(862,322)"/>
<path d="M0 0 C0.66 0 1.32 0 2 0 C1.49827949 5.80779503 -0.19693494 10.10504348 -2.875 15.25 C-3.22691406 15.95640625 -3.57882812 16.6628125 -3.94140625 17.390625 C-5.66352413 20.77084152 -7.19738797 23.39352103 -10 26 C-11.2659516 16.95748859 -6.2649877 8.92528559 -1.39453125 1.578125 C-0.93433594 1.05734375 -0.47414063 0.5365625 0 0 Z " fill="#F0EEEA" transform="translate(330,549)"/>
<path d="M0 0 C-1.33333333 4 -2.66666667 8 -4 12 C-4.22179785 13.89212737 -4.40614015 15.78884472 -4.5625 17.6875 C-4.64628906 18.68136719 -4.73007812 19.67523438 -4.81640625 20.69921875 C-4.87699219 21.45847656 -4.93757812 22.21773438 -5 23 C-5.33 23 -5.66 23 -6 23 C-6.22786458 20.94921875 -6.45572917 18.8984375 -6.68359375 16.84765625 C-6.81886614 14.98859771 -6.81886614 14.98859771 -8 14 C-9.32 16.64 -10.64 19.28 -12 22 C-12.66 21.67 -13.32 21.34 -14 21 C-13.67386719 20.32195312 -13.34773437 19.64390625 -13.01171875 18.9453125 C-10.37971761 13.33969354 -8.21881232 7.90016569 -6.67578125 1.8984375 C-5.36380393 -1.78723288 -3.17681713 -0.95304514 0 0 Z " fill="#DCD9DA" transform="translate(848,331)"/>
<path d="M0 0 C0.33 0 0.66 0 1 0 C1 1.98 1 3.96 1 6 C1.66 6 2.32 6 3 6 C3.66 4.68 4.32 3.36 5 2 C4.690625 3.175625 4.38125 4.35125 4.0625 5.5625 C2.54415957 12.28196405 2.3434297 19.14044366 2 26 C1.34 26 0.68 26 0 26 C-0.33 23.03 -0.66 20.06 -1 17 C-2.32 18.98 -3.64 20.96 -5 23 C-5.33 22.34 -5.66 21.68 -6 21 C-5.31540403 19.18582069 -4.62420947 17.37389319 -3.90234375 15.57421875 C-2.12906096 10.51537305 -1.12504727 5.23426248 0 0 Z " fill="#DBD7D7" transform="translate(393,525)"/>
<path d="M0 0 C0.45375 0.61875 0.9075 1.2375 1.375 1.875 C2.97108919 4.05919833 2.97108919 4.05919833 5 6 C-2.39528515 15.97404453 -2.39528515 15.97404453 -7 19 C-7.66 19 -8.32 19 -9 19 C-7.39369175 14.75707468 -5.4231838 10.72974893 -3.375 6.6875 C-3.05015625 6.04232422 -2.7253125 5.39714844 -2.390625 4.73242188 C-1.59558044 3.15402459 -0.79804366 1.57688306 0 0 Z " fill="#E7E6E2" transform="translate(337,563)"/>
<path d="M0 0 C0.33 0 0.66 0 1 0 C1.875 2.4375 1.875 2.4375 2 6 C0.3275676 9.24945758 -1.78595798 12.10065926 -4 15 C-4.84304688 16.12535156 -4.84304688 16.12535156 -5.703125 17.2734375 C-6.13109375 17.84320313 -6.5590625 18.41296875 -7 19 C-7 18.34 -7 17.68 -7 17 C-7.66 17 -8.32 17 -9 17 C-9 16.01 -9 15.02 -9 14 C-9.99 13.67 -10.98 13.34 -12 13 C-11.21753906 12.56429688 -10.43507813 12.12859375 -9.62890625 11.6796875 C-8.61699219 11.08414062 -7.60507812 10.48859375 -6.5625 9.875 C-5.55316406 9.29492188 -4.54382813 8.71484375 -3.50390625 8.1171875 C-0.71173672 6.16810573 -0.71173672 6.16810573 -0.15234375 2.7578125 C-0.10207031 1.84773438 -0.05179688 0.93765625 0 0 Z " fill="#EBE8E6" transform="translate(690,381)"/>
<path d="M0 0 C0.33 0 0.66 0 1 0 C1 2.64 1 5.28 1 8 C1.99 8 2.98 8 4 8 C2.35821735 12.77609498 -0.26546702 16.79382904 -3 21 C-3.95827504 17.95501389 -3.99431517 15.97726069 -3.22265625 12.890625 C-3.03896484 12.13652344 -2.85527344 11.38242187 -2.66601562 10.60546875 C-2.36727539 9.43951172 -2.36727539 9.43951172 -2.0625 8.25 C-1.86720703 7.45722656 -1.67191406 6.66445313 -1.47070312 5.84765625 C-0.98875921 3.89637115 -0.49547912 1.94789217 0 0 Z " fill="#CECCCD" transform="translate(744,354)"/>
<path d="M0 0 C0.33 0 0.66 0 1 0 C1 5.28 1 10.56 1 16 C0.67 16 0.34 16 0 16 C-0.22786458 13.94921875 -0.45572917 11.8984375 -0.68359375 9.84765625 C-0.81886614 7.98859771 -0.81886614 7.98859771 -2 7 C-3.32 9.64 -4.64 12.28 -6 15 C-6.66 14.67 -7.32 14.34 -8 14 C-6.35 10.37 -4.7 6.74 -3 3 C-2.34 3 -1.68 3 -1 3 C-0.67 2.01 -0.34 1.02 0 0 Z " fill="#D4CECB" transform="translate(842,338)"/>
<path d="M0 0 C-0.99 2.97 -1.98 5.94 -3 9 C-3.66 8.01 -4.32 7.02 -5 6 C-6.98 8.31 -8.96 10.62 -11 13 C-11 9.46077448 -10.29518562 8.68108103 -8.1875 5.9375 C-7.40439453 4.89916016 -7.40439453 4.89916016 -6.60546875 3.83984375 C-4.64359121 1.59156073 -3.10321737 0 0 0 Z " fill="#BAB8C0" transform="translate(952,282)"/>
<path d="M0 0 C0.45375 0.61875 0.9075 1.2375 1.375 1.875 C2.97108919 4.05919833 2.97108919 4.05919833 5 6 C4.01 6.99 3.02 7.98 2 9 C1.01 8.34 0.02 7.68 -1 7 C-1.103125 7.639375 -1.20625 8.27875 -1.3125 8.9375 C-1.539375 9.618125 -1.76625 10.29875 -2 11 C-2.99 11.33 -3.98 11.66 -5 12 C-3.41037341 7.96479403 -1.71767682 3.98188718 0 0 Z " fill="#D8D4D1" transform="translate(337,563)"/>
<path d="M0 0 C0.185625 0.61875 0.37125 1.2375 0.5625 1.875 C2.71437233 5.05602866 5.37533763 5.19451947 9 6 C9 6.33 9 6.66 9 7 C4.20979426 8.00846437 1.32006978 8.58033208 -3 6.0625 C-3.99 5.381875 -4.98 4.70125 -6 4 C-5.01 3.67 -4.02 3.34 -3 3 C-2.67 2.34 -2.34 1.68 -2 1 C-1.34 1.33 -0.68 1.66 0 2 C0 1.34 0 0.68 0 0 Z " fill="#CFCDCC" transform="translate(305,587)"/>
<path d="M0 0 C0.33 0 0.66 0 1 0 C0.67 2.97 0.34 5.94 0 9 C0.66 9.33 1.32 9.66 2 10 C0.625 12 0.625 12 -1 14 C-1.66 14 -2.32 14 -3 14 C-2.58846263 9.02906176 -2.20399168 4.55491614 0 0 Z " fill="#B8B3B0" transform="translate(407,531)"/>
<path d="M0 0 C0.66 0 1.32 0 2 0 C2 3.3 2 6.6 2 10 C1.67 9.01 1.34 8.02 1 7 C-0.65 7.33 -2.3 7.66 -4 8 C-2.87548273 5.0280615 -1.77706209 2.66559313 0 0 Z " fill="#BDBABB" transform="translate(753,373)"/>
<path d="M0 0 C1.00007341 3.1113395 0.87515553 4.88833588 0 8 C0 9.32 0 10.64 0 12 C-1.5 13.75 -1.5 13.75 -3 15 C-3.3152595 9.01006953 -2.68219822 5.36439644 0 0 Z " fill="#D2CECB" transform="translate(323,560)"/>
<path d="M0 0 C0.33 0 0.66 0 1 0 C2.12029814 5.48946087 1.79217969 8.83430559 0 14 C0.66 14.33 1.32 14.66 2 15 C1.01 16.485 1.01 16.485 0 18 C-0.66 18 -1.32 18 -2 18 C-1.34 12.06 -0.68 6.12 0 0 Z " fill="#C7C4C1" transform="translate(488,489)"/>
<path d="M0 0 C0.66666667 2.66666667 1.33333333 5.33333333 2 8 C0.35 9.32 -1.3 10.64 -3 12 C-3.34833144 7.12335991 -2.41685712 4.22949995 0 0 Z " fill="#C8C2C0" transform="translate(855,338)"/>
<path d="M0 0 C0.99 0 1.98 0 3 0 C4.32229189 2.64458379 4.09677194 4.67761301 4.0625 7.625 C4.05347656 8.62789062 4.04445313 9.63078125 4.03515625 10.6640625 C4.02355469 11.43492187 4.01195312 12.20578125 4 13 C3.67 13 3.34 13 3 13 C2.67 10.03 2.34 7.06 2 4 C0.02 6.97 0.02 6.97 -2 10 C-3 8 -3 8 -2.44140625 6.0546875 C-2.15136719 5.33539062 -1.86132812 4.61609375 -1.5625 3.875 C-1.27503906 3.15054688 -0.98757813 2.42609375 -0.69140625 1.6796875 C-0.46324219 1.12539063 -0.23507812 0.57109375 0 0 Z " fill="#E5E1DF" transform="translate(390,538)"/>
<path d="M0 0 C-0.5625 2.875 -0.5625 2.875 -2 6 C-5.625 7.375 -5.625 7.375 -9 8 C-3.95652174 0 -3.95652174 0 0 0 Z " fill="#CFCED0" transform="translate(804,346)"/>
<path d="M0 0 C0.66 0 1.32 0 2 0 C1.67 2.31 1.34 4.62 1 7 C0.01 7 -0.98 7 -2 7 C-2.66 8.32 -3.32 9.64 -4 11 C-4.66 11 -5.32 11 -6 11 C-4.54997977 6.89160936 -2.6020866 3.49655387 0 0 Z " fill="#D1CFD0" transform="translate(330,549)"/>
<path d="M0 0 C0.33 0 0.66 0 1 0 C1 1.65 1 3.3 1 5 C1.66 5 2.32 5 3 5 C1.88243734 8.86848614 0.97126708 11.28922757 -2 14 C-1.03644647 4.58997722 -1.03644647 4.58997722 0 0 Z " fill="#C7C7C7" transform="translate(544,445)"/>
<path d="M0 0 C-0.33 2.31 -0.66 4.62 -1 7 C-2.65 5.68 -4.3 4.36 -6 3 C-6 3.66 -6 4.32 -6 5 C-6.99 4.67 -7.98 4.34 -9 4 C-3.7826087 0 -3.7826087 0 0 0 Z " fill="#D0D0D0" transform="translate(508,451)"/>
<path d="M0 0 C0 0.66 0 1.32 0 2 C-1.2065625 2.7734375 -1.2065625 2.7734375 -2.4375 3.5625 C-5.73839843 6.702379 -5.69469751 8.77601238 -5.95703125 13.171875 C-5.97121094 13.77515625 -5.98539063 14.3784375 -6 15 C-6.33 15 -6.66 15 -7 15 C-7.13504138 13.06440687 -7.23201129 11.126128 -7.3125 9.1875 C-7.37050781 8.10855469 -7.42851563 7.02960938 -7.48828125 5.91796875 C-7 3 -7 3 -4.60546875 1.11328125 C-2 0 -2 0 0 0 Z " fill="#D0CFCF" transform="translate(678,395)"/>
<path d="M0 0 C0.33 0 0.66 0 1 0 C1 1.65 1 3.3 1 5 C1.66 5.33 2.32 5.66 3 6 C1.35 7.98 -0.3 9.96 -2 12 C-3.12377697 8.69564916 -2.89554742 6.9493138 -1.5625 3.75 C-1.27503906 3.04359375 -0.98757813 2.3371875 -0.69140625 1.609375 C-0.46324219 1.07828125 -0.23507812 0.5471875 0 0 Z " fill="#D1CECC" transform="translate(908,315)"/>
<path d="M0 0 C0.33 0 0.66 0 1 0 C1 5.28 1 10.56 1 16 C0.67 16 0.34 16 0 16 C-0.07347656 15.04287109 -0.07347656 15.04287109 -0.1484375 14.06640625 C-0.22320312 13.24011719 -0.29796875 12.41382813 -0.375 11.5625 C-0.44460938 10.73878906 -0.51421875 9.91507812 -0.5859375 9.06640625 C-0.79089844 8.04353516 -0.79089844 8.04353516 -1 7 C-1.66 6.67 -2.32 6.34 -3 6 C-1.125 1.125 -1.125 1.125 0 0 Z " fill="#AEA8A8" transform="translate(476,498)"/>
<path d="M0 0 C0.33 0.99 0.66 1.98 1 3 C1.66 3 2.32 3 3 3 C1.66511872 6.59391114 0.03977277 9.75490696 -2 13 C-3.04449911 9.86650268 -2.93423645 9.01031744 -2 6 C-1.34 6 -0.68 6 0 6 C0 4.02 0 2.04 0 0 Z " fill="#C3C1C1" transform="translate(465,489)"/>
<path d="M0 0 C0.66 0 1.32 0 2 0 C3.18681726 3.56045177 3.09689832 6.43808337 3.0625 10.1875 C3.05347656 11.45980469 3.04445313 12.73210938 3.03515625 14.04296875 C3.02355469 15.01878906 3.01195312 15.99460937 3 17 C2.67 17 2.34 17 2 17 C1.95101563 16.07316406 1.90203125 15.14632812 1.8515625 14.19140625 C1.77679688 12.99386719 1.70203125 11.79632812 1.625 10.5625 C1.55539062 9.36753906 1.48578125 8.17257812 1.4140625 6.94140625 C1.27742188 5.97074219 1.14078125 5.00007812 1 4 C0.34 3.67 -0.32 3.34 -1 3 C-0.67 2.01 -0.34 1.02 0 0 Z " fill="#CBC7C6" transform="translate(392,534)"/>
<path d="M0 0 C0.33 0.66 0.66 1.32 1 2 C2.32 1.67 3.64 1.34 5 1 C4.25 3.4375 4.25 3.4375 3 6 C0.875 6.8125 0.875 6.8125 -1 7 C-0.67 4.69 -0.34 2.38 0 0 Z " fill="#F4F2F1" transform="translate(856,337)"/>
<path d="M0 0 C0.33 0 0.66 0 1 0 C1.375 2.25 1.375 2.25 1 5 C-2 7.3125 -2 7.3125 -5 9 C-5 8.01 -5 7.02 -5 6 C-4.34 6 -3.68 6 -3 6 C-2.87625 5.38125 -2.7525 4.7625 -2.625 4.125 C-2 2 -2 2 0 0 Z " fill="#F8F7F5" transform="translate(329,554)"/>
<path d="M0 0 C-0.99 2.97 -1.98 5.94 -3 9 C-3.33 9 -3.66 9 -4 9 C-4 7.35 -4 5.7 -4 4 C-4.66 3.67 -5.32 3.34 -6 3 C-2.25 0 -2.25 0 0 0 Z " fill="#C8C9CD" transform="translate(423,512)"/>
<path d="M0 0 C0.66 0.33 1.32 0.66 2 1 C-0.97 3.97 -3.94 6.94 -7 10 C-7.66 9.67 -8.32 9.34 -9 9 C-6.31941902 5.42589203 -3.57410797 2.68058098 0 0 Z " fill="#252526" transform="translate(703,373)"/>
<path d="M0 0 C1.98 0 3.96 0 6 0 C6.33 1.65 6.66 3.3 7 5 C5.68 5.33 4.36 5.66 3 6 C3.33 4.35 3.66 2.7 4 1 C2.68 0.67 1.36 0.34 0 0 Z " fill="#323230" transform="translate(674,497)"/>
<path d="M0 0 C0.66 0 1.32 0 2 0 C2 2.31 2 4.62 2 7 C1.34 6.34 0.68 5.68 0 5 C-0.33 5.66 -0.66 6.32 -1 7 C-1.66 7 -2.32 7 -3 7 C-1.125 1.125 -1.125 1.125 0 0 Z " fill="#BCB9BC" transform="translate(553,460)"/>
<path d="M0 0 C0 0.66 0 1.32 0 2 C-3.33333333 3.66666667 -6.66666667 5.33333333 -10 7 C-8.89184175 3.78634109 -8.01470446 3.0085776 -5 1.25 C-2 0 -2 0 0 0 Z " fill="#DAD9DB" transform="translate(530,440)"/>
<path d="M0 0 C0.33 0 0.66 0 1 0 C1.75 2.625 1.75 2.625 2 6 C0.0625 9.375 0.0625 9.375 -2 12 C-2.33 11.34 -2.66 10.68 -3 10 C-3.99 9.67 -4.98 9.34 -6 9 C-5.195625 8.62875 -4.39125 8.2575 -3.5625 7.875 C-0.68827104 6.1890663 -0.68827104 6.1890663 -0.1875 2.8125 C-0.125625 1.884375 -0.06375 0.95625 0 0 Z " fill="#B2AFAF" transform="translate(690,381)"/>
<path d="M0 0 C0.66 0.33 1.32 0.66 2 1 C1.01 4.3 0.02 7.6 -1 11 C-1.33 11 -1.66 11 -2 11 C-1.67 8.69 -1.34 6.38 -1 4 C-1.66 3.67 -2.32 3.34 -3 3 C-2.01 2.01 -1.02 1.02 0 0 Z " fill="#B2A9AF" transform="translate(888,342)"/>
<path d="M0 0 C0.66 1.32 1.32 2.64 2 4 C2.66 4.33 3.32 4.66 4 5 C2.625 7 2.625 7 1 9 C0.34 9 -0.32 9 -1 9 C-0.67 6.03 -0.34 3.06 0 0 Z " fill="#B5B0AC" transform="translate(934,305)"/>
<path d="M0 0 C0.66 0 1.32 0 2 0 C2.33 0.99 2.66 1.98 3 3 C1.35 4.32 -0.3 5.64 -2 7 C-2.66 6.67 -3.32 6.34 -4 6 C-2.7260411 3.96166576 -1.38938077 1.96147874 0 0 Z " fill="#CCC9C8" transform="translate(803,371)"/>
<path d="M0 0 C1.35015859 4.05047576 0.62084998 6.7920168 0 11 C-0.33 11 -0.66 11 -1 11 C-1 9.02 -1 7.04 -1 5 C-1.66 5 -2.32 5 -3 5 C-1.125 1.125 -1.125 1.125 0 0 Z " fill="#C6C3C3" transform="translate(704,386)"/>
<path d="M0 0 C0.99 0.33 1.98 0.66 3 1 C1.02 5.455 1.02 5.455 -1 10 C-2.31223496 6.06329512 -1.24296256 3.87511856 0 0 Z " fill="#E2E3E5" transform="translate(903,290)"/>
</svg>
